<svg width="67" height="31" viewBox="0 0 67 31" xmlns="http://www.w3.org/2000/svg">
  <path d="M58.615 18.631c-8.145 7.53-17.112 11.296-26.902 11.296-11.03 0-21.016-4.78-29.957-14.34 8.941-9.5 18.927-14.25 29.957-14.25 9.607 0 18.422 3.604 26.444 10.81 1.123-3.562 3.655-6.395 7.599-8.499-.411 2.338-1.13 5.422-2.155 9.25a8.2 8.2 0 0 1-.745 1.874 8.2 8.2 0 0 1 .745 1.874c1.025 3.829 1.744 6.912 2.155 9.25-3.477-1.855-5.857-4.277-7.141-7.265z" fill="#6EC7EC" stroke="#6EC7EC" stroke-width="2" fill-rule="evenodd" stroke-linecap="round" stroke-linejoin="round"/>
</svg>
